<?xml version="1.0" encoding="UTF-8"?>
<svg width="301px" height="215px" viewBox="0 0 301 215" version="1.1" xmlns="http://www.w3.org/2000/svg">
    <title>cat-logo</title>
    <g id="Page-1" stroke="none" stroke-width="1" fill="none" fill-rule="evenodd">
        <path d="M245.231124,0.5 C252.936886,0.5 258.359458,6.2 258.359458,14.3 L258.35888,42.799 L257.217864,42.8 C257.217864,42.8 258.202198,42.8 258.342817,43.0401968 L258.359458,43.1 L258.35888,42.799 L287.755511,42.8 C295.461272,42.8 300.883845,48.5 300.883845,56.6 L300.883845,65.9 C300.883845,74 295.461272,79.7 287.755511,79.7 L257.217864,79.7 L257.217864,149.6 C257.217864,163.4 263.782031,171.5 276.910365,171.5 L283.474532,171.5 C291.180293,171.5 296.602866,177.2 296.602866,185.3 L296.602866,194.6 C296.602866,202.7 291.180293,208.4 283.474532,208.4 L274.627176,208.4 C252.711564,208.4 236.414061,202.383034 227.026707,188.108167 C216.812323,185.405023 204.478295,183.339082 190.642971,183.339082 L165.186757,100.438704 C164.233624,96.4295735 161.450739,93.7049117 158.309202,93.7049117 C155.167665,93.7049117 152.385032,96.4295735 151.431899,100.438704 L138.458939,142.683491 C140.219027,142.081296 142.054825,141.781905 143.963086,141.781905 C154.11974,141.864157 162.132386,151.175061 162.468854,151.56987 L162.828797,152.063381 C167.555006,159.646997 169.026078,167.222389 167.226362,174.5757 C164.182496,186.979272 152.711267,194.16808 150.770705,195.303155 C131.466802,209.754797 112.436769,214.402028 95.9576369,214.402028 C67.8742535,214.410249 47.1853526,200.920953 45.1352421,199.522673 C42.1539746,197.737808 2.57588798,172.980015 0.956144222,121.301206 C-0.00103477196,95.1681673 8.57535272,69.637939 24.9314818,49.9313144 C26.4416777,47.5377868 28.343116,45.448591 30.5340737,43.7377534 C31.9210573,42.3176323 33.3757437,40.9724543 34.8925147,39.707415 C68.265496,13.370387 98.7824074,14.6699655 118.501027,20.3864659 C126.15431,22.6035956 132.773981,25.6111135 138.142098,28.5804186 L217.83188,29.813 L217.832862,14.3 C217.832862,6.2 223.255435,0.5 230.961196,0.5 L245.231124,0.5 Z M104.600915,68.559855 C97.4315367,66.8582264 92.3019917,67.4624478 92.2017093,67.4756244 L91.857416,67.5085251 C73.2421,68.2570166 58.2340395,79.6571168 51.7081153,97.9992693 C45.0335191,116.760906 49.032017,137.093552 61.8960688,149.793231 C65.5242201,153.376126 69.2923846,156.316975 73.1881879,158.610303 C77.218877,147.055377 81.7401276,134.094006 86.2918584,121.045638 L88.0090089,116.123132 C93.8975219,99.242764 99.740265,82.4942953 104.541438,68.7329073 Z M218.531735,43.8026426 L188.578656,43.8026426 C185.594476,43.8315783 182.38876,45.2292151 178.961506,47.9955528 C176.724105,49.8014901 175.605405,52.7276622 175.605405,56.7740692 L175.605405,67.8295955 C175.605405,71.3727664 176.885389,74.4674675 179.445357,77.1136987 C181.810046,79.5580707 184.854479,80.7876998 188.578656,80.802586 L219.39279,80.802586 L218.531735,43.8026426 Z" id="cat-logo" fill="#FFFFFF" fill-rule="nonzero" />
    </g>
</svg>